<?xml version="1.0" standalone="no"?>
<!DOCTYPE svg PUBLIC "-//W3C//DTD SVG 20010904//EN"
 "http://www.w3.org/TR/2001/REC-SVG-20010904/DTD/svg10.dtd">
<svg version="1.0" xmlns="http://www.w3.org/2000/svg"
 width="474.000000pt" height="474.000000pt" viewBox="0 0 474.000000 474.000000"
 preserveAspectRatio="xMidYMid meet">

<g transform="translate(0.000000,474.000000) scale(0.100000,-0.100000)"
fill="#000000" stroke="none">
<path d="M2045 2980 c-848 -52 -1451 -260 -1555 -537 -18 -48 -19 -63 -10
-105 5 -27 15 -59 21 -71 118 -226 603 -410 1279 -484 232 -25 805 -25 1040 0
178 19 467 68 540 91 l45 14 -61 1 c-34 1 -84 -3 -112 -9 -28 -5 -106 -16
-174 -24 -404 -50 -849 -44 -1233 15 -84 13 -176 20 -259 19 -136 -1 -156 5
-156 45 0 19 -14 27 -107 60 -131 46 -208 84 -290 141 -283 201 -185 429 259
600 206 80 558 149 884 173 281 22 662 11 929 -24 96 -13 111 -13 124 0 18 18
17 18 -104 39 -291 49 -764 74 -1060 56z"/>
<path d="M3220 2814 c-22 -47 -40 -87 -40 -89 0 -1 -11 -27 -25 -58 l-24 -56
-39 40 -40 39 -173 0 c-118 0 -182 -4 -198 -13 -17 -9 -44 -60 -106 -203 -45
-105 -85 -196 -89 -202 -7 -11 -186 -18 -186 -7 0 2 38 93 85 201 47 108 85
203 85 210 0 21 -656 21 -686 0 -11 -8 -32 -41 -46 -73 -119 -267 -288 -663
-288 -672 0 -15 158 -14 189 2 18 8 37 43 70 120 l45 107 316 0 c249 1 320 4
340 15 19 10 28 11 39 2 10 -9 127 -12 425 -12 382 0 414 1 440 18 15 10 29
17 31 15 2 -2 -21 -60 -51 -128 -29 -69 -54 -130 -54 -135 0 -13 186 -13 200
1 5 5 32 59 59 119 l49 110 223 3 224 3 75 44 c63 37 70 45 48 45 -16 0 -28 4
-28 8 0 9 154 365 170 393 5 9 6 20 3 23 -4 3 -158 6 -343 6 -336 0 -337 0
-357 -22 -11 -13 -57 -110 -103 -215 l-83 -193 -93 0 c-93 0 -93 0 -85 23 5
12 66 152 135 311 69 159 126 293 126 298 0 4 -45 8 -100 8 l-101 0 -39 -86z
m-1000 -231 c0 -5 -30 -79 -67 -165 l-68 -158 -143 0 c-79 0 -142 4 -140 9 2
4 34 78 72 165 l69 156 138 0 c77 0 139 -3 139 -7z m897 -5 c-3 -7 -35 -80
-71 -163 -36 -82 -66 -151 -66 -152 0 -2 -63 -3 -141 -3 -119 0 -140 2 -137
15 2 8 32 82 68 165 l65 150 144 0 c111 0 142 -3 138 -12z m893 4 c0 -4 -31
-77 -68 -162 l-68 -155 -142 -3 c-78 -1 -142 -1 -142 1 0 2 28 66 61 143 34
76 65 149 70 162 8 21 13 22 149 22 77 0 140 -4 140 -8z"/>
<path d="M3475 2830 c-6 -9 33 -30 55 -30 5 0 64 -18 131 -40 120 -39 159 -46
102 -17 -31 16 -259 97 -273 97 -5 0 -12 -5 -15 -10z"/>
<path d="M3945 2114 c-44 -35 -187 -97 -322 -140 -78 -25 -147 -52 -153 -60
-18 -21 -3 -18 117 22 149 48 440 194 388 193 -5 0 -19 -7 -30 -15z"/>
</g>
</svg>
